<?xml version="1.0" standalone="no"?>
<!DOCTYPE svg PUBLIC "-//W3C//DTD SVG 20010904//EN"
 "http://www.w3.org/TR/2001/REC-SVG-20010904/DTD/svg10.dtd">
<svg version="1.0" xmlns="http://www.w3.org/2000/svg"
 width="300.000000pt" height="300.000000pt" viewBox="0 0 300.000000 300.000000"
 preserveAspectRatio="xMidYMid meet">
<metadata>
Created by potrace 1.10, written by Peter Selinger 2001-2011
</metadata>
<g transform="translate(0.000000,300.000000) scale(0.100000,-0.100000)"
fill="#000000" stroke="none">
<path d="M1285 2451 c-3 -6 -54 -37 -113 -69 -59 -33 -152 -85 -207 -116
l-100 -55 -5 -172 c-3 -94 -3 -172 0 -174 3 -2 16 5 29 15 24 17 25 17 160
-64 l136 -82 5 -421 5 -421 53 47 52 46 3 738 c1 405 -1 737 -5 737 -4 0 -9
-4 -13 -9z m-7 -742 c1 -376 -1 -691 -4 -699 -4 -8 -6 -19 -5 -25 2 -5 0 -7
-4 -3 -9 8 -35 -14 -28 -24 2 -4 -2 -6 -9 -3 -10 4 -13 83 -13 390 l0 385 -32
29 c-18 17 -33 28 -33 25 0 -3 -7 2 -16 10 -8 9 -21 16 -27 16 -7 0 -25 11
-41 25 -16 14 -33 25 -38 25 -5 0 -26 11 -46 25 -20 14 -49 25 -63 25 -34 0
-39 17 -39 153 0 112 0 111 52 153 14 11 53 27 53 22 0 -2 14 9 30 25 17 15
36 25 43 22 7 -3 10 0 7 5 -3 6 5 10 19 10 14 0 26 4 26 9 0 5 13 14 30 21 16
7 27 17 24 22 -4 6 4 5 16 -2 12 -7 20 -8 17 -3 -10 16 45 55 68 49 7 -2 11
-241 13 -687z"/>
<path d="M1360 1748 l0 -710 117 108 c65 60 123 114 129 119 6 6 39 36 73 68
l61 59 35 -36 35 -36 0 442 0 443 -142 80 c-79 43 -180 100 -225 126 l-83 47
0 -710z m118 605 c37 -20 85 -48 107 -63 22 -15 51 -31 65 -35 14 -4 37 -16
52 -26 14 -11 30 -19 36 -19 33 0 35 -30 33 -617 l-1 -183 -24 0 c-27 0 -56
-21 -146 -104 -36 -34 -96 -89 -133 -123 -36 -34 -69 -59 -71 -55 -6 10 -6
1244 0 1254 7 12 8 11 82 -29z"/>
<path d="M1965 1967 c-87 -53 -121 -79 -123 -95 -3 -20 3 -18 62 21 59 39 154
98 166 104 3 2 6 -203 7 -455 l3 -457 39 -35 c21 -19 71 -64 110 -99 l71 -63
0 515 0 515 -77 42 c-43 24 -90 51 -105 61 -14 11 -28 19 -30 19 -1 -1 -57
-33 -123 -73z m225 -18 c0 -3 14 -12 30 -19 17 -7 35 -21 41 -31 12 -23 12
-916 0 -924 -5 -3 -26 11 -47 30 -22 19 -45 35 -52 35 -7 0 -10 5 -7 10 3 5 1
10 -5 10 -6 0 -20 9 -32 20 -13 12 -17 20 -9 20 10 0 11 3 3 13 -17 20 -16
864 1 870 14 4 77 -23 77 -34z"/>
<path d="M803 1798 l-103 -60 0 -419 c0 -230 3 -419 8 -419 4 1 53 45 109 98
l102 97 3 362 c2 200 4 363 5 363 1 0 52 -31 113 -70 61 -38 113 -70 115 -70
3 0 5 8 5 18 0 11 -40 40 -121 87 -66 39 -124 71 -127 72 -4 0 -53 -26 -109
-59z m102 16 c-9 -4 -12 -182 -5 -329 2 -27 2 -121 1 -207 l-1 -157 -35 -36
c-19 -20 -39 -34 -44 -30 -7 3 -8 0 -5 -9 4 -10 -8 -24 -35 -42 -22 -14 -38
-31 -34 -37 3 -6 1 -7 -5 -3 -8 5 -11 118 -12 379 l0 373 47 34 c27 19 53 35
58 35 6 0 12 2 15 5 11 11 46 29 55 29 7 -1 7 -2 0 -5z"/>
<path d="M1841 1557 l0 -262 105 -93 104 -93 0 294 0 294 -105 61 -105 61 1
-262z m63 192 c-3 -5 5 -9 18 -9 13 0 29 -9 36 -21 8 -12 19 -18 27 -15 8 3
14 0 12 -7 -1 -7 3 -11 9 -10 15 3 15 -3 18 -269 2 -222 -1 -251 -24 -228 -3
3 -20 18 -38 33 -19 15 -30 27 -26 27 5 0 -3 8 -16 17 -14 10 -28 17 -33 15
-4 -1 -6 1 -5 5 1 5 -3 19 -9 33 -6 14 -11 109 -12 211 -2 190 6 243 35 232 8
-3 11 -9 8 -14z"/>
<path d="M1136 1631 c-3 -4 -46 -32 -96 -60 l-90 -52 0 -209 0 -209 27 -21
c15 -11 60 -52 101 -90 40 -39 75 -70 78 -70 2 0 4 162 4 360 0 329 -4 384
-24 351z m-11 -79 c4 -11 1 -537 -4 -550 -1 -3 -63 51 -107 93 l-31 30 2 187
c1 174 3 189 21 203 10 8 24 15 29 15 6 0 21 9 34 19 28 22 48 23 56 3z"/>
<path d="M1545 1149 c-105 -95 -227 -206 -271 -248 l-81 -77 -126 114 -126
113 -213 -193 c-117 -106 -245 -221 -283 -255 l-70 -63 60 0 60 0 146 133
c266 242 307 278 311 270 1 -5 75 -73 163 -152 88 -80 185 -169 216 -198 l56
-54 60 3 61 3 -75 63 c-41 35 -73 67 -71 72 2 5 86 85 188 177 l186 169 107
-97 c59 -54 179 -163 266 -243 l159 -146 53 0 53 0 -59 53 c-60 52 -481 434
-544 493 l-34 32 -156 -141 c-86 -77 -183 -166 -216 -198 l-60 -58 -29 25
c-28 25 -28 26 -10 43 10 10 121 111 247 225 l227 207 383 -341 382 -340 60 0
60 0 -60 53 c-101 88 -697 618 -758 674 -32 29 -61 53 -65 53 -4 0 -93 -77
-197 -171z m229 106 c17 -13 17 -15 4 -15 -9 0 -20 5 -23 10 -9 15 -27 12 -19
-2 4 -7 3 -10 -1 -5 -5 4 -18 -1 -29 -10 -20 -18 -20 -17 -6 2 29 39 44 43 74
20z m-654 -405 c4 0 10 -7 14 -15 3 -8 4 -15 2 -15 -7 0 -86 78 -86 85 0 4 14
-7 31 -24 17 -17 34 -31 39 -31z m118 -43 c-13 -9 -14 -17 -6 -37 6 -14 12
-32 14 -40 2 -13 1 -13 -9 1 -7 8 -19 18 -28 21 -27 10 -20 54 10 65 32 12 40
7 19 -10z m77 -117 c4 0 3 5 0 10 -3 6 -1 10 4 10 6 0 12 -3 12 -7 11 -70 0
-76 -40 -22 -12 16 -27 27 -33 23 -7 -4 -8 -2 -4 5 6 9 14 8 32 -3 13 -9 26
-16 29 -16z"/>
<path d="M928 833 c-3 -9 -208 -197 -277 -255 l-45 -38 335 0 334 1 -36 32
c-20 18 -95 85 -166 150 -72 64 -133 117 -136 117 -3 0 -7 -3 -9 -7z m46 -75
c-3 -4 2 -5 10 -2 16 6 116 -86 116 -106 0 -6 5 -8 10 -5 6 3 17 -1 26 -9 8
-9 12 -16 7 -16 -4 0 3 -7 15 -16 35 -24 17 -34 -62 -34 l-73 0 -7 31 c-3 17
-6 44 -6 60 0 16 -4 29 -10 29 -5 0 -10 -11 -10 -25 0 -18 -5 -25 -20 -25 -15
0 -20 7 -20 25 0 16 4 23 13 19 8 -3 19 1 26 9 10 12 3 14 -45 12 -59 -3 -75
-14 -73 -50 1 -11 1 -34 0 -51 l-1 -31 -80 -2 c-77 -2 -80 -1 -80 20 0 12 3
19 7 16 3 -4 13 2 20 13 8 11 19 17 25 14 6 -4 8 -3 5 2 -3 5 6 19 19 29 14
11 39 32 57 48 17 15 34 27 38 27 4 0 9 9 12 21 3 12 10 18 16 14 6 -3 11 -1
11 5 0 7 7 10 15 6 8 -3 15 0 15 6 0 7 6 3 14 -7 8 -11 12 -23 10 -27z m-44
-78 c19 0 2 -35 -18 -38 -18 -3 -22 2 -22 23 0 21 4 26 16 21 9 -3 19 -6 24
-6z m6 -77 c3 -19 -1 -23 -21 -23 -20 0 -25 5 -25 26 0 20 4 25 22 22 13 -2
22 -12 24 -25z m54 1 c0 -17 -5 -24 -20 -24 -14 0 -20 7 -20 23 0 16 6 23 20
24 15 1 20 -4 20 -23z"/>
<path d="M1650 689 l0 -40 37 3 c35 3 37 5 40 41 2 37 2 37 -38 37 l-39 0 0
-41z"/>
<path d="M1760 690 c0 -40 0 -40 38 -40 37 0 37 0 37 40 0 40 0 40 -37 40 -38
0 -38 0 -38 -40z"/>
<path d="M1650 580 c0 -40 0 -40 38 -40 37 0 37 0 37 40 0 40 0 40 -37 40 -38
0 -38 0 -38 -40z"/>
<path d="M1760 580 c0 -40 0 -40 39 -40 38 0 38 0 37 40 -1 39 -1 40 -38 40
-38 0 -38 0 -38 -40z"/>
</g>
</svg>
